<?xml version="1.0" encoding="utf-8"?>
<!-- Generator: Adobe Illustrator 23.1.1, SVG Export Plug-In . SVG Version: 6.00 Build 0)  -->
<svg version="1.1" id="Layer_1" xmlns="http://www.w3.org/2000/svg" xmlns:xlink="http://www.w3.org/1999/xlink" x="0px" y="0px"
	 viewBox="0 0 267 127" style="enable-background:new 0 0 267 127;" xml:space="preserve">
<style type="text/css">
	.st0{fill:#FFFFFF;}
	.st1{fill:#6CABB9;}
</style>
<g>
	<path class="st0" d="M9.93,2.5h11.46c5.47,0,10.48,1.68,10.48,8.32c0,3.6-1.4,6.78-4.21,8.51c-2.39,1.5-5.43,1.96-8.32,1.96
		c-1.68,0-3.98-0.23-4.91-0.56l-1.96,8.6c-0.28,1.4-0.09,2.06,0.98,2.15l3.04,0.23l-0.28,1.31H3.34l0.33-1.31l2.39-0.23
		c1.08-0.14,1.5-0.65,1.82-2.15L13.21,6.2c0.33-1.45,0.05-2.06-0.98-2.15L9.65,3.81L9.93,2.5z M15.17,17.89
		c-0.33,1.36,1.64,1.82,3.74,1.82c5.19,0,8.09-3.13,8.09-9.45c0-3.93-2.25-6.22-6.55-6.22c-2.15,0-2.29,0.23-2.57,1.59L15.17,17.89z
		"/>
	<path class="st0" d="M47.77,27.2c-3.04,4.91-7.02,6.41-10.52,6.41c-2.76,0-6.5-1.12-6.5-7.25c0-3.69,1.36-7.72,3.65-10.57
		c2.43-2.99,5.52-4.86,9.49-4.86c3.65,0,5.24,2.1,5.24,4.49c0,6.03-9.31,7.76-13.84,8.28c-0.05,0.33-0.09,1.4-0.09,1.64
		c0,3.41,0.94,6.03,3.98,6.03c3.32,0,5.85-2.71,7.53-5.05L47.77,27.2z M45.15,15.09c0-1.5-0.84-2.62-2.39-2.62
		c-3.46,0-6.59,4.44-7.34,9.73C41.08,21.4,45.15,19.29,45.15,15.09z"/>
	<path class="st0" d="M73.91,0.12l0.23,0.19l-7.02,28.44c-0.33,1.4-0.37,2.43,0.37,2.43c1.22,0,3.18-3.18,4.02-4.72l1.12,0.79
		c-1.5,3.37-3.93,6.36-7.34,6.36c-2.24,0-2.9-1.82-2.06-4.96c0.47-1.54,0.94-3.23,1.36-4.82h-0.09c-2.62,4.72-6.36,9.77-11.46,9.77
		c-3.55,0-4.4-3.04-4.4-5.89c0-5.33,4.68-16.79,14.92-16.79c1.5,0,2.9,0.42,3.74,0.89l1.78-7.58c0.33-1.4,0.28-1.68-0.8-1.82
		l-2.57-0.23l0.23-1.03L73.91,0.12z M55.21,31.17c4.26,0,9.63-10.01,10.76-14.36c0.33-1.26,0.61-2.2,0.89-3.41
		c-0.47-0.33-1.64-0.84-2.95-0.84c-6.97,0-10.76,10.76-10.76,15.53C53.15,30,53.8,31.17,55.21,31.17z"/>
	<path class="st0" d="M83.97,27.25c-1.5,3.37-3.93,6.36-7.16,6.36c-2.43,0-3.04-1.87-2.39-4.44l3.69-13.66
		c0.42-1.5,0.28-1.92-0.94-2.01l-2.53-0.19l0.33-1.12l8.09-1.22l0.23,0.23l-4.77,17.58c-0.37,1.36-0.47,2.39,0.37,2.39
		c1.22,0,3.18-3.09,4.02-4.63L83.97,27.25z M85.09,4.38c0,1.82-1.12,3.04-2.85,3.04c-1.36,0-2.43-0.89-2.43-2.53
		c0-1.45,0.94-2.95,2.9-2.95C83.92,1.94,85.09,2.65,85.09,4.38z"/>
	<path class="st0" d="M107.07,11.39l-4.68,17.4c-0.37,1.4-0.37,2.34,0.42,2.34c1.17,0,3.13-3.09,3.93-4.68l1.12,0.7
		c-1.54,3.37-3.98,6.45-7.34,6.45c-2.43,0-2.99-1.87-2.01-5.05l1.36-4.54h-0.09c-2.53,4.44-6.64,9.59-11.36,9.59
		c-3.18,0-4.07-2.29-4.07-5.33c0-5.8,4.82-17.35,15.2-17.35c1.5,0,2.71,0.47,3.51,1.03l0.14-0.56H107.07z M99.92,12.56
		c-6.83,0-11.08,10.76-11.08,15.57c0,1.73,0.42,2.99,1.82,2.99c3.98,0,9.54-9.87,10.9-14.22c0.37-1.26,0.75-2.43,1.03-3.46
		C101.93,12.84,100.95,12.56,99.92,12.56z"/>
	<path class="st0" d="M117.65,13.21l-3.88,15.85c-0.28,1.08-0.23,2.06,0.61,2.06c1.22,0,3.6-2.85,4.63-4.63l0.98,0.84
		c-1.78,3.32-4.54,6.27-8.09,6.27c-2.25,0-2.81-1.87-2.15-4.44l3.93-15.95h-3.65l0.47-1.73h3.6l1.03-3.98l4.02-2.34l0.51,0.33
		l-1.59,5.99h5.14l-0.51,1.73H117.65z"/>
	<path class="st0" d="M121.44,33.56l3.6-15.67c0.7-3.23,0.84-4.3,0.05-4.35l-2.95-0.23l0.23-1.12l7.48-1.22l0.23,0.19l-1.96,8.18
		h0.19c2.34-4.96,5.43-8.42,7.9-8.42c1.4,0,2.06,0.8,2.01,2.01c-0.05,1.26-1.12,2.95-2.25,2.95c-1.45,0-1.26-1.12-2.53-1.12
		s-3.27,3.27-4.91,7.72c-1.31,3.41-2.25,7.02-3.18,10.57L121.44,33.56z"/>
	<path class="st0" d="M147.96,27.25c-1.5,3.37-3.93,6.36-7.16,6.36c-2.43,0-3.04-1.87-2.39-4.44l3.69-13.66
		c0.42-1.5,0.28-1.92-0.94-2.01l-2.53-0.19l0.33-1.12l8.09-1.22l0.23,0.23l-4.77,17.58c-0.37,1.36-0.47,2.39,0.37,2.39
		c1.22,0,3.18-3.09,4.02-4.63L147.96,27.25z M149.08,4.38c0,1.82-1.12,3.04-2.85,3.04c-1.36,0-2.43-0.89-2.43-2.53
		c0-1.45,0.94-2.95,2.9-2.95C147.91,1.94,149.08,2.65,149.08,4.38z"/>
	<path class="st0" d="M165.49,26.96c-2.99,5.14-6.78,6.69-10.43,6.69c-3.23,0-6.36-1.78-6.36-7.11c0-7.2,4.86-15.62,12.77-15.62
		c3.32,0,5.52,1.73,5.52,3.98c0,1.5-1.64,2.43-2.71,2.43c-0.79,0-1.22-0.51-1.26-1.36c-0.28-2.57-1.17-3.46-2.53-3.46
		c-4.02,0-7.25,7.44-7.25,13.14c0,3.09,0.65,5.71,3.83,5.71c2.9,0,5.66-2.76,7.44-5.33L165.49,26.96z"/>
	<path class="st0" d="M22.33,42.88c5.8,0,10.57,0.42,10.57,6.73c0,3.55-2.53,6.36-8.65,6.83v0.42c4.91,0.37,9.73,1.31,9.73,7.53
		c0,7.67-8.04,8.89-14.03,8.89H4.13v-1.5c2.62-0.09,2.85-0.37,2.85-2.67V47.04c0-2.29-0.23-2.62-2.85-2.71v-1.45H22.33z
		 M17.37,56.21h1.17c3.04,0,3.88-1.5,3.88-5.57c0-4.35-1.87-5.94-3.41-5.94c-1.68,0-1.64,0.37-1.64,1.17V56.21z M17.37,69.21
		c0,1.45,0.14,2.29,2.06,2.29c2.15,0,3.69-2.34,3.69-6.78c0-4.21-1.31-6.73-4.54-6.73h-1.22V69.21z"/>
	<path class="st0" d="M85.94,49.05l0.19,0.14v19.97c0,2.39,0.23,2.48,2.62,2.62v1.5H73.4v-1.5c2.39-0.14,2.62-0.23,2.62-2.62V53.92
		c0-1.26-0.23-1.78-0.98-1.92l-1.36-0.23v-1.5L85.94,49.05z M76.35,44.38c0-2.2,1.78-3.88,4.58-3.88c2.85,0,4.63,1.68,4.63,3.88
		s-1.78,3.88-4.63,3.88C78.13,48.26,76.35,46.57,76.35,44.38z"/>
	<path class="st0" d="M99.13,49.05l0.61,3.18c2.71-1.82,4.16-3.27,7.44-3.27c4.96,0,7.3,2.9,7.3,7.44v12.77
		c0,2.39,0.28,2.48,2.62,2.62v1.5h-14.17v-1.5c1.5-0.19,1.68-0.47,1.68-1.78V57c0-3.13-0.89-4.16-2.2-4.16
		c-1.5,0-2.43,1.12-2.43,4.44V69.4c0,1.31,0.23,2.2,1.68,2.39v1.5H87.48v-1.5c2.39-0.14,2.62,0.14,2.62-2.25V53.92
		c0-1.26-0.23-1.78-0.98-1.92l-1.36-0.23v-1.5L99.13,49.05z"/>
	<path class="st0" d="M145.01,56.3v-9.68c0-1.96-0.14-2.2-2.39-2.29v-1.45h15.76v1.45c-2.81,0.09-2.85,0.33-2.85,2.29v22.96
		c0,1.96,0.19,2.1,2.85,2.2v1.5h-15.76v-1.5c2.24-0.09,2.39-0.19,2.39-2.2V58.27h-6.73v11.32c0,1.96,0.19,2.1,2.39,2.2v1.5H124.9
		v-1.5c2.48-0.09,2.85-0.33,2.85-2.2V46.62c0-1.96-0.23-2.2-2.85-2.29v-1.45h15.76v1.45c-2.24,0.09-2.39,0.33-2.39,2.29v9.68H145.01
		z"/>
	<path class="st0" d="M169,61.35c0.05,4.96,1.64,8.51,5.47,8.51c3.13,0,4.86-0.56,6.36-3.79l1.22,0.65
		c-1.78,5.71-6.08,7.16-11.04,7.16c-8.32,0-12.3-3.55-12.3-12.35c0-8.18,4.44-12.58,12.53-12.58c11.22,0,11.32,7.58,11.32,10.01
		c0,1.59-0.42,2.39-2.01,2.39H169z M171.86,59.34c1.22-0.09,1.59-0.23,1.59-2.1c0-1.59,0-6.5-2.1-6.5c-1.87,0-2.34,4.72-2.34,8.79
		L171.86,59.34z"/>
	<path class="st0" d="M187.57,60.37c1.08-0.28,7.2-1.92,8.51-3.13v-2.85c0-2.71-0.75-3.55-2.15-3.55c-1.31,0-2.76,1.12-3.6,5.05
		c-0.42,1.82-1.12,2.39-2.85,2.39c-2.15,0-4.44-0.84-4.44-3.18c0-2.85,3.79-6.13,11.79-6.13c9.03,0,10.85,3.79,10.85,7.3v10.8
		c0,3.51,1.22,3.74,3.09,3.74l0.09,1.36c-2.06,1.22-4.72,1.73-7.86,1.73c-2.34,0-3.98-0.89-4.72-2.85
		c-1.59,1.22-2.99,2.85-5.99,2.85c-4.58,0-7.72-3.18-7.72-7.34C182.57,63.6,183.69,61.59,187.57,60.37z M196.08,59.16
		c-2.81,1.59-4.02,2.29-4.02,6.22c0,2.67,0.94,5,2.53,5c1.03,0,1.5-0.61,1.5-2.76V59.16z"/>
	<path class="st0" d="M207.36,73.28v-1.5c2.38-0.14,2.67-0.23,2.67-2.62V44.75c0-1.31-0.28-1.82-1.03-1.96l-1.31-0.19v-1.5
		l11.97-1.03l0.19,0.19v28.9c0,2.39,0.28,2.48,2.67,2.62v1.5H207.36z"/>
	<path class="st0" d="M233.92,51.72v14.12c0,3.32,0.61,4.68,2.53,4.68c0.65,0,1.08-0.14,1.64-0.33l0.33,1.31
		c-2.76,1.5-4.96,2.39-7.67,2.39c-4.26,0-6.64-1.64-6.64-6.22V51.72h-2.39v-2.15h2.62l5.85-5.57h3.74v5.57h3.93v2.15H233.92z"/>
	<path class="st0" d="M236.5,73.28v-1.5c2.39-0.14,2.67-0.23,2.67-2.62V44.75c0-1.31-0.28-1.82-1.03-1.96l-1.31-0.19v-1.5
		l12.07-1.03l0.09,0.19V52c2.53-1.78,4.12-3.04,7.25-3.04c4.96,0,7.25,2.9,7.25,7.44v12.77c0,2.39,0.28,2.48,2.67,2.62v1.5h-14.36
		v-1.5c1.5-0.19,1.87-0.47,1.87-1.78V56.58c0-3.13-1.03-3.98-2.34-3.98c-1.5,0-2.34,0.94-2.34,4.21v13.19
		c0,1.31,0.37,1.59,1.87,1.78v1.5H236.5z"/>
</g>
<path class="st1" d="M119.37,118.2H11.15c-1.12,0-2.21,0.41-3.06,1.15l-8.24,7.2l6.24-40.51c0.35-2.27,2.3-3.94,4.59-3.94h113.77
	c2.91,0,5.11,2.65,4.57,5.51l-5.08,26.81C123.52,116.61,121.6,118.2,119.37,118.2z"/>
<g>
	<path class="st0" d="M8.98,109.07c0,0,1.82,2.28,5.58,2.28c2.35,0,5.12-1.4,5.12-4.14c0-3.95-8.92-3.26-8.92-8.54
		c0-3.76,3.53-5.65,6.75-5.65c3.87,0,5.5,2.05,5.5,2.05l-1.1,1.18c0,0-1.33-1.67-4.44-1.67c-2.2,0-5.05,1.14-5.05,4.02
		c0,4.06,8.92,3.3,8.92,8.61c0,3.3-3.23,5.69-6.75,5.69c-4.71,0-6.72-2.73-6.72-2.73L8.98,109.07z"/>
	<path class="st0" d="M23.55,105.5l2.31-12.03h1.59l-2.2,11.38c-0.23,1.1-0.34,2.09-0.34,2.96c0,2.01,0.8,3.53,3.76,3.53
		c4.74,0,8.69-4.63,9.53-9.07l1.71-8.8h1.59l-3.68,18.97h-1.59l0.61-3.15c0.19-0.87,0.49-1.75,0.49-1.75h-0.08
		c-1.02,1.94-4.1,5.35-8.84,5.35c-2.73,0-5.16-1.25-5.16-4.78C23.24,107.32,23.36,106.45,23.55,105.5z"/>
	<path class="st0" d="M44.99,93.47h1.59l-0.61,3.15c-0.19,0.87-0.49,1.75-0.49,1.75h0.08c1.48-2.96,4.97-5.35,8.35-5.35
		c3.76,0,4.97,1.94,4.97,5.16h0.08c1.56-2.92,4.82-5.16,8.16-5.16c3.49,0,5.24,1.82,5.24,4.9c0,0.76-0.11,1.59-0.3,2.5l-2.31,12.03
		h-1.59l2.2-11.46c0.19-0.99,0.34-1.94,0.34-2.77c0-2.2-0.91-3.72-3.79-3.72c-4.48,0-8.01,4.71-8.77,8.69l-1.78,9.26h-1.59
		l2.2-11.46c0.19-0.99,0.34-1.97,0.34-2.88c0-2.05-0.8-3.6-3.64-3.6c-4.4,0-8.12,4.48-8.96,8.73l-1.78,9.22h-1.59L44.99,93.47z"/>
	<path class="st0" d="M76.67,93.47h1.59l-0.61,3.15c-0.19,0.87-0.49,1.75-0.49,1.75h0.08c1.48-2.96,4.97-5.35,8.35-5.35
		c3.76,0,4.97,1.94,4.97,5.16h0.08c1.56-2.92,4.82-5.16,8.16-5.16c3.49,0,5.24,1.82,5.24,4.9c0,0.76-0.11,1.59-0.3,2.5l-2.31,12.03
		h-1.59l2.2-11.46c0.19-0.99,0.34-1.94,0.34-2.77c0-2.2-0.91-3.72-3.79-3.72c-4.48,0-8.01,4.71-8.77,8.69l-1.78,9.26h-1.59
		l2.2-11.46c0.19-0.99,0.34-1.97,0.34-2.88c0-2.05-0.8-3.6-3.64-3.6c-4.4,0-8.12,4.48-8.96,8.73l-1.78,9.22h-1.59L76.67,93.47z"/>
	<path class="st0" d="M108.4,93.47h1.59l-3.72,18.97h-1.59L108.4,93.47z M109.73,85.88h1.9l-0.57,2.77h-1.9L109.73,85.88z"/>
	<path class="st0" d="M111.81,105.2l1.97-10.17h-2.5l0.27-1.44h2.5l1.06-5.39h1.59l-1.06,5.39h4.97l-0.27,1.44h-4.97l-2.01,10.44
		c-0.15,0.72-0.19,1.33-0.19,1.86c0,3.34,1.97,3.79,3.38,3.79c0.68,0,1.1-0.08,1.1-0.08l-0.3,1.48c0,0-0.3,0.08-0.8,0.08
		c-2.01,0-4.97-0.61-4.97-5.2C111.59,106.75,111.66,106.03,111.81,105.2z"/>
</g>
<g>
	<path class="st0" d="M45.27,54.07c2.34-2.9,3.65-4.58,5.94-4.58s4.07,1.68,4.07,3.93c0,2.67-2.57,5.52-4.82,5.52
		c-1.12,0-1.54-0.37-2.06-1.17c-0.79-1.31-1.78-2.29-2.34-2.29c-0.28,0-0.51,0.33-0.51,0.84v12.84c0,2.39,0.05,2.48,3.23,2.62v1.5
		H33.06v-1.5c2.39-0.14,2.62-0.23,2.62-2.62V53.9c0-1.26-0.23-1.78-0.98-1.92l-1.36-0.23v-1.5l11.37-1.22L45.27,54.07z"/>
	<path class="st0" d="M53.42,60.36c1.08-0.28,7.21-1.92,8.51-3.13v-2.85c0-2.41-1.44-4.47-7.14-4.49c1.77-0.59,3.37-0.93,5.87-0.93
		c9.03,0,10.85,3.79,10.85,7.3v10.81c0,3.51,1.22,3.74,3.09,3.74l0.09,1.36c-2.06,1.22-4.73,1.73-7.86,1.73
		c-2.34,0-3.98-0.89-4.72-2.85c-1.59,1.22-2.99,2.85-5.99,2.85c-4.58,0-7.72-3.18-7.72-7.35C48.42,63.59,49.54,61.58,53.42,60.36z
		 M61.94,59.14c-2.81,1.59-4.02,2.29-4.02,6.22c0,2.67,0.94,5,2.53,5c1.03,0,1.5-0.61,1.5-2.76V59.14z"/>
</g>
</svg>
