<?xml version="1.0" encoding="utf-8"?>
<!-- Generator: Adobe Illustrator 24.3.0, SVG Export Plug-In . SVG Version: 6.00 Build 0)  -->
<svg version="1.1" xmlns="http://www.w3.org/2000/svg" xmlns:xlink="http://www.w3.org/1999/xlink" x="0px" y="0px"
	 viewBox="0 0 427.9 132.9" style="enable-background:new 0 0 427.9 132.9;" xml:space="preserve">
<style type="text/css">
	.st0{fill:#44475B;stroke:url(#SVGID_1_);stroke-width:3;stroke-miterlimit:10;}
	.st1{fill:url(#SVGID_2_);}
	.st2{opacity:0.7;}
	.st3{fill:#44475B;}
	.st4{fill:#929497;}
	.st5{fill:none;stroke:#A6A8AB;stroke-width:2;stroke-miterlimit:10;}
	.st6{fill:#A6A8AB;}
	.st7{fill:none;stroke:#A6A8AB;stroke-width:0.5;stroke-miterlimit:10;}
	.st8{fill:#6CB3BD;}
	.st9{fill:#FFFFFF;stroke:url(#SVGID_3_);stroke-width:3;stroke-miterlimit:10;}
	.st10{fill:#FFFFFF;}
	.st11{fill:url(#SVGID_4_);}
	.st12{fill:url(#SVGID_5_);}
</style>
<g id="Layer_1">
</g>
<g id="community">
</g>
<g id="Isolation_Mode">
	<g>
		<g>
			<g>
				<path class="st10" d="M170.2,8.1h11.5c5.5,0,10.5,1.7,10.5,8.4c0,3.6-1.4,6.8-4.2,8.6c-2.4,1.5-5.5,2-8.4,2
					c-1.7,0-4-0.2-4.9-0.6l-2,8.7c-0.3,1.4-0.1,2.1,1,2.2l3.1,0.2l-0.3,1.3h-12.9l0.3-1.3l2.4-0.2c1.1-0.1,1.5-0.7,1.8-2.2l5.4-23.3
					c0.3-1.5,0-2.1-1-2.2l-2.6-0.2L170.2,8.1z M175.4,23.6c-0.3,1.4,1.6,1.8,3.8,1.8c5.2,0,8.1-3.2,8.1-9.5c0-4-2.3-6.3-6.6-6.3
					c-2.2,0-2.3,0.2-2.6,1.6L175.4,23.6z"/>
				<path class="st10" d="M208.2,32.9c-3.1,4.9-7.1,6.4-10.6,6.4c-2.8,0-6.5-1.1-6.5-7.3c0-3.7,1.4-7.8,3.7-10.6
					c2.4-3,5.6-4.9,9.5-4.9c3.7,0,5.3,2.1,5.3,4.5c0,6.1-9.4,7.8-13.9,8.3c0,0.3-0.1,1.4-0.1,1.6c0,3.4,0.9,6.1,4,6.1
					c3.3,0,5.9-2.7,7.6-5.1L208.2,32.9z M205.6,20.7c0-1.5-0.8-2.6-2.4-2.6c-3.5,0-6.6,4.5-7.4,9.8C201.5,27.1,205.6,25,205.6,20.7z
					"/>
				<path class="st10" d="M234.5,5.7l0.2,0.2l-7.1,28.6c-0.3,1.4-0.4,2.4,0.4,2.4c1.2,0,3.2-3.2,4-4.8l1.1,0.8
					c-1.5,3.4-4,6.4-7.4,6.4c-2.3,0-2.9-1.8-2.1-5c0.5-1.6,0.9-3.2,1.4-4.8h-0.1c-2.6,4.8-6.4,9.8-11.5,9.8c-3.6,0-4.4-3.1-4.4-5.9
					c0-5.4,4.7-16.9,15-16.9c1.5,0,2.9,0.4,3.8,0.9l1.8-7.6c0.3-1.4,0.3-1.7-0.8-1.8l-2.6-0.2l0.2-1L234.5,5.7z M215.7,36.9
					c4.3,0,9.7-10.1,10.8-14.4c0.3-1.3,0.6-2.2,0.9-3.4c-0.5-0.3-1.6-0.8-3-0.8c-7,0-10.8,10.8-10.8,15.6
					C213.6,35.8,214.3,36.9,215.7,36.9z"/>
				<path class="st10" d="M244.6,33c-1.5,3.4-4,6.4-7.2,6.4c-2.4,0-3.1-1.9-2.4-4.5l3.7-13.7c0.4-1.5,0.3-1.9-0.9-2l-2.5-0.2
					l0.3-1.1l8.1-1.2l0.2,0.2l-4.8,17.7c-0.4,1.4-0.5,2.4,0.4,2.4c1.2,0,3.2-3.1,4-4.7L244.6,33z M245.8,10c0,1.8-1.1,3.1-2.9,3.1
					c-1.4,0-2.4-0.9-2.4-2.5c0-1.5,0.9-3,2.9-3C244.6,7.5,245.8,8.2,245.8,10z"/>
				<path class="st10" d="M267.9,17l-4.7,17.5c-0.4,1.4-0.4,2.4,0.4,2.4c1.2,0,3.2-3.1,4-4.7l1.1,0.7c-1.6,3.4-4,6.5-7.4,6.5
					c-2.4,0-3-1.9-2-5.1l1.4-4.6h-0.1c-2.5,4.5-6.7,9.6-11.4,9.6c-3.2,0-4.1-2.3-4.1-5.4c0-5.8,4.8-17.5,15.3-17.5
					c1.5,0,2.7,0.5,3.5,1L264,17H267.9z M260.7,18.2c-6.9,0-11.1,10.8-11.1,15.7c0,1.7,0.4,3,1.8,3c4,0,9.6-9.9,11-14.3
					c0.4-1.3,0.8-2.4,1-3.5C262.7,18.5,261.7,18.2,260.7,18.2z"/>
				<path class="st10" d="M278.5,18.9l-3.9,15.9c-0.3,1.1-0.2,2.1,0.6,2.1c1.2,0,3.6-2.9,4.7-4.7l1,0.8c-1.8,3.3-4.6,6.3-8.1,6.3
					c-2.3,0-2.8-1.9-2.2-4.5l4-16h-3.7l0.5-1.7h3.6l1-4l4-2.4l0.5,0.3l-1.6,6h5.2l-0.5,1.7H278.5z"/>
				<path class="st10" d="M282.3,39.3l3.6-15.8c0.7-3.2,0.8-4.3,0-4.4l-3-0.2l0.2-1.1l7.5-1.2l0.2,0.2l-2,8.2h0.2
					c2.4-5,5.5-8.5,8-8.5c1.4,0,2.1,0.8,2,2c0,1.3-1.1,3-2.3,3c-1.5,0-1.3-1.1-2.5-1.1s-3.3,3.3-4.9,7.8c-1.3,3.4-2.3,7.1-3.2,10.6
					L282.3,39.3z"/>
				<path class="st10" d="M309,33c-1.5,3.4-4,6.4-7.2,6.4c-2.4,0-3.1-1.9-2.4-4.5l3.7-13.7c0.4-1.5,0.3-1.9-0.9-2l-2.5-0.2l0.3-1.1
					l8.1-1.2l0.2,0.2l-4.8,17.7c-0.4,1.4-0.5,2.4,0.4,2.4c1.2,0,3.2-3.1,4-4.7L309,33z M310.1,10c0,1.8-1.1,3.1-2.9,3.1
					c-1.4,0-2.4-0.9-2.4-2.5c0-1.5,0.9-3,2.9-3C308.9,7.5,310.1,8.2,310.1,10z"/>
				<path class="st10" d="M326.6,32.7c-3,5.2-6.8,6.7-10.5,6.7c-3.2,0-6.4-1.8-6.4-7.2c0-7.2,4.9-15.7,12.8-15.7
					c3.3,0,5.6,1.7,5.6,4c0,1.5-1.6,2.4-2.7,2.4c-0.8,0-1.2-0.5-1.3-1.4c-0.3-2.6-1.2-3.5-2.5-3.5c-4,0-7.3,7.5-7.3,13.2
					c0,3.1,0.7,5.7,3.9,5.7c2.9,0,5.7-2.8,7.5-5.4L326.6,32.7z"/>
				<path class="st10" d="M182.6,48.7c5.8,0,10.6,0.4,10.6,6.8c0,3.6-2.5,6.4-8.7,6.9v0.4c4.9,0.4,9.8,1.3,9.8,7.6
					c0,7.7-8.1,8.9-14.1,8.9h-15.9v-1.5c2.6-0.1,2.9-0.4,2.9-2.7V52.9c0-2.3-0.2-2.6-2.9-2.7v-1.5H182.6z M177.6,62.1h1.2
					c3.1,0,3.9-1.5,3.9-5.6c0-4.4-1.9-6-3.4-6c-1.7,0-1.6,0.4-1.6,1.2V62.1z M177.6,75.2c0,1.5,0.1,2.3,2.1,2.3
					c2.2,0,3.7-2.4,3.7-6.8c0-4.2-1.3-6.8-4.6-6.8h-1.2V75.2z"/>
				<path class="st10" d="M246.6,54.9l0.2,0.1v20.1c0,2.4,0.2,2.5,2.6,2.6v1.5H234v-1.5c2.4-0.1,2.6-0.2,2.6-2.6V59.8
					c0-1.3-0.2-1.8-1-1.9l-1.4-0.2v-1.5L246.6,54.9z M237,50.2c0-2.2,1.8-3.9,4.6-3.9c2.9,0,4.7,1.7,4.7,3.9c0,2.2-1.8,3.9-4.7,3.9
					C238.8,54.1,237,52.4,237,50.2z"/>
				<path class="st10" d="M259.9,54.9l0.6,3.2c2.7-1.8,4.2-3.3,7.5-3.3c5,0,7.3,2.9,7.3,7.5v12.8c0,2.4,0.3,2.5,2.6,2.6v1.5h-14.3
					v-1.5c1.5-0.2,1.7-0.5,1.7-1.8V62.9c0-3.2-0.9-4.2-2.2-4.2c-1.5,0-2.4,1.1-2.4,4.5v12.2c0,1.3,0.2,2.2,1.7,2.4v1.5h-14.3v-1.5
					c2.4-0.1,2.6,0.1,2.6-2.3V59.8c0-1.3-0.2-1.8-1-1.9l-1.4-0.2v-1.5L259.9,54.9z"/>
				<path class="st10" d="M306,62.2v-9.7c0-2-0.1-2.2-2.4-2.3v-1.5h15.9v1.5c-2.8,0.1-2.9,0.3-2.9,2.3v23.1c0,2,0.2,2.1,2.9,2.2v1.5
					h-15.9v-1.5c2.3-0.1,2.4-0.2,2.4-2.2V64.2h-6.8v11.4c0,2,0.2,2.1,2.4,2.2v1.5h-15.9v-1.5c2.5-0.1,2.9-0.3,2.9-2.2V52.5
					c0-2-0.2-2.2-2.9-2.3v-1.5h15.9v1.5c-2.3,0.1-2.4,0.3-2.4,2.3v9.7H306z"/>
				<path class="st10" d="M330.2,67.3c0,5,1.6,8.6,5.5,8.6c3.2,0,4.9-0.6,6.4-3.8l1.2,0.7c-1.8,5.7-6.1,7.2-11.1,7.2
					c-8.4,0-12.4-3.6-12.4-12.4c0-8.2,4.5-12.7,12.6-12.7c11.3,0,11.4,7.6,11.4,10.1c0,1.6-0.4,2.4-2,2.4H330.2z M333,65.3
					c1.2-0.1,1.6-0.2,1.6-2.1c0-1.6,0-6.5-2.1-6.5c-1.9,0-2.4,4.8-2.4,8.8L333,65.3z"/>
				<path class="st10" d="M348.8,66.3c1.1-0.3,7.2-1.9,8.6-3.2v-2.9c0-2.7-0.8-3.6-2.2-3.6c-1.3,0-2.8,1.1-3.6,5.1
					c-0.4,1.8-1.1,2.4-2.9,2.4c-2.2,0-4.5-0.8-4.5-3.2c0-2.9,3.8-6.2,11.9-6.2c9.1,0,10.9,3.8,10.9,7.3V73c0,3.5,1.2,3.8,3.1,3.8
					l0.1,1.4c-2.1,1.2-4.8,1.7-7.9,1.7c-2.4,0-4-0.9-4.8-2.9c-1.6,1.2-3,2.9-6,2.9c-4.6,0-7.8-3.2-7.8-7.4
					C343.8,69.5,344.9,67.5,348.8,66.3z M357.4,65.1c-2.8,1.6-4,2.3-4,6.3c0,2.7,0.9,5,2.5,5c1,0,1.5-0.6,1.5-2.8V65.1z"/>
				<path class="st10" d="M368.7,79.3v-1.5c2.4-0.1,2.7-0.2,2.7-2.6V50.6c0-1.3-0.3-1.8-1-2l-1.3-0.2v-1.5l12-1l0.2,0.2v29.1
					c0,2.4,0.3,2.5,2.7,2.6v1.5H368.7z"/>
				<path class="st10" d="M395.5,57.6v14.2c0,3.3,0.6,4.7,2.5,4.7c0.7,0,1.1-0.1,1.6-0.3l0.3,1.3c-2.8,1.5-5,2.4-7.7,2.4
					c-4.3,0-6.7-1.6-6.7-6.3v-16h-2.4v-2.2h2.6l5.9-5.6h3.8v5.6h4v2.2H395.5z"/>
				<path class="st10" d="M398,79.3v-1.5c2.4-0.1,2.7-0.2,2.7-2.6V50.6c0-1.3-0.3-1.8-1-2l-1.3-0.2v-1.5l12.1-1l0.1,0.2v11.8
					c2.5-1.8,4.1-3.1,7.3-3.1c5,0,7.3,2.9,7.3,7.5v12.8c0,2.4,0.3,2.5,2.7,2.6v1.5h-14.4v-1.5c1.5-0.2,1.9-0.5,1.9-1.8V62.5
					c0-3.2-1-4-2.4-4c-1.5,0-2.4,0.9-2.4,4.2V76c0,1.3,0.4,1.6,1.9,1.8v1.5H398z"/>
			</g>
			<path class="st8" d="M280.2,124.5H171.4c-1.1,0-2.2,0.4-3.1,1.2l-8.3,7.2l6.3-40.7c0.4-2.3,2.3-4,4.6-4h114.4
				c2.9,0,5.1,2.7,4.6,5.5l-5.1,27C284.4,122.9,282.5,124.5,280.2,124.5z"/>
			<g>
				<path class="st10" d="M169.2,115.3c0,0,1.8,2.3,5.6,2.3c2.4,0,5.2-1.4,5.2-4.2c0-4-9-3.3-9-8.6c0-3.8,3.5-5.7,6.8-5.7
					c3.9,0,5.5,2.1,5.5,2.1l-1.1,1.2c0,0-1.3-1.7-4.5-1.7c-2.2,0-5.1,1.1-5.1,4c0,4.1,9,3.3,9,8.7c0,3.3-3.2,5.7-6.8,5.7
					c-4.7,0-6.8-2.7-6.8-2.7L169.2,115.3z"/>
				<path class="st10" d="M183.9,111.7l2.3-12.1h1.6l-2.2,11.4c-0.2,1.1-0.3,2.1-0.3,3c0,2,0.8,3.5,3.8,3.5c4.8,0,8.7-4.7,9.6-9.1
					l1.7-8.9h1.6l-3.7,19.1h-1.6l0.6-3.2c0.2-0.9,0.5-1.8,0.5-1.8h-0.1c-1,1.9-4.1,5.4-8.9,5.4c-2.7,0-5.2-1.3-5.2-4.8
					C183.6,113.5,183.7,112.6,183.9,111.7z"/>
				<path class="st10" d="M205.6,99.6h1.6l-0.6,3.2c-0.2,0.9-0.5,1.8-0.5,1.8h0.1c1.5-3,5-5.4,8.4-5.4c3.8,0,5,1.9,5,5.2h0.1
					c1.6-2.9,4.8-5.2,8.2-5.2c3.5,0,5.3,1.8,5.3,4.9c0,0.8-0.1,1.6-0.3,2.5l-2.3,12.1h-1.6l2.2-11.5c0.2-1,0.3-1.9,0.3-2.8
					c0-2.2-0.9-3.7-3.8-3.7c-4.5,0-8.1,4.7-8.8,8.7l-1.8,9.3h-1.6l2.2-11.5c0.2-1,0.3-2,0.3-2.9c0-2.1-0.8-3.6-3.7-3.6
					c-4.4,0-8.2,4.5-9,8.8l-1.8,9.3h-1.6L205.6,99.6z"/>
				<path class="st10" d="M237.5,99.6h1.6l-0.6,3.2c-0.2,0.9-0.5,1.8-0.5,1.8h0.1c1.5-3,5-5.4,8.4-5.4c3.8,0,5,1.9,5,5.2h0.1
					c1.6-2.9,4.8-5.2,8.2-5.2c3.5,0,5.3,1.8,5.3,4.9c0,0.8-0.1,1.6-0.3,2.5l-2.3,12.1h-1.6l2.2-11.5c0.2-1,0.3-1.9,0.3-2.8
					c0-2.2-0.9-3.7-3.8-3.7c-4.5,0-8.1,4.7-8.8,8.7l-1.8,9.3h-1.6l2.2-11.5c0.2-1,0.3-2,0.3-2.9c0-2.1-0.8-3.6-3.7-3.6
					c-4.4,0-8.2,4.5-9,8.8l-1.8,9.3h-1.6L237.5,99.6z"/>
				<path class="st10" d="M269.5,99.6h1.6l-3.7,19.1h-1.6L269.5,99.6z M270.8,92h1.9l-0.6,2.8h-1.9L270.8,92z"/>
				<path class="st10" d="M273,111.4l2-10.2h-2.5l0.3-1.5h2.5l1.1-5.4h1.6l-1.1,5.4h5l-0.3,1.5h-5l-2,10.5c-0.2,0.7-0.2,1.3-0.2,1.9
					c0,3.4,2,3.8,3.4,3.8c0.7,0,1.1-0.1,1.1-0.1l-0.3,1.5c0,0-0.3,0.1-0.8,0.1c-2,0-5-0.6-5-5.2C272.8,112.9,272.9,112.2,273,111.4z
					"/>
			</g>
			<g>
				<path class="st10" d="M205.7,60c2.4-2.9,3.7-4.6,6-4.6s4.1,1.7,4.1,4c0,2.7-2.6,5.6-4.8,5.6c-1.1,0-1.6-0.4-2.1-1.2
					c-0.8-1.3-1.8-2.3-2.4-2.3c-0.3,0-0.5,0.3-0.5,0.8v12.9c0,2.4,0,2.5,3.2,2.6v1.5h-15.8v-1.5c2.4-0.1,2.6-0.2,2.6-2.6V59.8
					c0-1.3-0.2-1.8-1-1.9l-1.4-0.2v-1.5l11.4-1.2L205.7,60z"/>
				<path class="st10" d="M213.9,66.3c1.1-0.3,7.2-1.9,8.6-3.2v-2.9c0-2.4-1.5-4.5-7.2-4.5c1.8-0.6,3.4-0.9,5.9-0.9
					c9.1,0,10.9,3.8,10.9,7.3V73c0,3.5,1.2,3.8,3.1,3.8l0.1,1.4c-2.1,1.2-4.8,1.7-7.9,1.7c-2.4,0-4-0.9-4.8-2.9
					c-1.6,1.2-3,2.9-6,2.9c-4.6,0-7.8-3.2-7.8-7.4C208.9,69.5,210,67.5,213.9,66.3z M222.5,65.1c-2.8,1.6-4,2.3-4,6.3
					c0,2.7,0.9,5,2.5,5c1,0,1.5-0.6,1.5-2.8V65.1z"/>
			</g>
		</g>
		<linearGradient id="SVGID_1_" gradientUnits="userSpaceOnUse" x1="-1.818989e-12" y1="65.1858" x2="138.234" y2="65.1858">
			<stop  offset="0" style="stop-color:#6CB3BD"/>
			<stop  offset="0.9995" style="stop-color:#E75D7F"/>
		</linearGradient>
		<path style="fill:url(#SVGID_1_);" d="M32.8,37.8c-2.4,0-4.3-1.9-4.3-4.3s1.9-4.3,4.3-4.3s4.3,1.9,4.3,4.3S35.2,37.8,32.8,37.8z
			 M39.5,95.7c0-2.4-1.9-4.3-4.3-4.3s-4.3,1.9-4.3,4.3s1.9,4.3,4.3,4.3S39.5,98.1,39.5,95.7z M102.4,80.2c0-2.4-1.9-4.3-4.3-4.3
			s-4.3,1.9-4.3,4.3s1.9,4.3,4.3,4.3S102.4,82.6,102.4,80.2z M104,34.3c0-2.4-1.9-4.3-4.3-4.3s-4.3,1.9-4.3,4.3s1.9,4.3,4.3,4.3
			S104,36.7,104,34.3z M39.9,20.4c5-0.4,10-0.7,14.8-0.8c4.9-0.1,9.7,0,14.7,0.2c5,0.2,10.1,0.9,15.9,1.1c-3.7-4.3-8.7-7.5-14-9.5
			c-5.4-2-11.1-2.9-16.8-2.8c-5.7,0.1-11.4,1.3-16.6,3.4c-5.2,2.2-10.3,5.1-13.8,9.8C29.8,21.2,34.9,20.8,39.9,20.4z M8.6,35.3
			c-2.7,4.6-4.2,10.2-3.8,15.8c0.4,5.6,2.6,11.2,6.5,15.3c3.8,4.1,9.1,6.7,14.4,6.4c-3.5-3.9-5.7-7.6-7.3-11.3
			c-1.5-3.7-2.4-7.4-2.6-11.2c-0.3-3.8,0-7.7,0.9-11.9C17.3,34.3,18.7,30,20,25C15.3,27.1,11.4,30.8,8.6,35.3z M134.6,48.3
			c0-6.3-2.5-12.7-6.5-17.6c-4-4.9-9.4-8.3-14.9-10.3c-5.6-2-11.4-2.8-17.2-2c4.7,3.6,9.1,6.5,13.2,9.6c4,3,7.6,6.2,10.5,9.7
			c2.9,3.5,5.1,7.3,6.5,11.8c1.5,4.5,2.1,9.7,2.8,15.5C132.6,60.4,134.6,54.6,134.6,48.3z M86,24.4c-2.7,0.8-5.3,1.3-7.9,1.6
			c-2.6,0.3-5.2,0.5-8.2,0.6c-3,0.1-6.2-0.1-10.3-0.1c1.5,3.8,4.5,6.6,8,8.4c3.6,1.8,7.8,2.5,11.9,2c4.1-0.5,8.1-2.4,11-5.2
			c2.9-2.8,5-6.8,4.6-10.9C91.6,22.6,88.7,23.7,86,24.4z M129.4,70.1c-2.5,3.6-5,6.7-7.8,9.4c-2.8,2.7-5.7,5-9.3,6.9
			c-3.5,1.9-7.5,3.3-12.6,4.4c4,3.4,9.6,4.6,15,3.9c5.5-0.7,10.7-3.5,14.5-7.4c3.9-3.9,6.6-8.6,7.9-13.6c1.3-5,1.5-10.2,0.2-15.1
			C134.2,62.7,131.9,66.6,129.4,70.1z M46.2,112.4c2.3-2.6,4.7-4.9,7.2-7c2.5-2.1,5.2-3.9,8.2-5.7c3-1.8,6.4-3.5,10.4-5.8
			C64.2,89.4,53.6,91,46.4,97c-3.6,3-6.4,7-7.8,11.3c-1.4,4.3-1.6,9.1,0.2,13.3C41.6,118,43.8,115.1,46.2,112.4z M31.3,112.2
			c-0.8-3.2-2.1-6.1-3.6-8.7c-3-5.3-6.6-9.8-9.9-14.2c-3.3-4.4-6.4-8.5-9-13.1c-2.6-4.5-4.4-9.5-6-15.5c-3,5.4-3.5,12.2-2,18.5
			c1.5,6.3,4.7,11.9,8.3,16.7c3.7,4.8,7.8,8.9,11.7,12.7c3.9,4,7.8,7.3,9.9,13C32.1,118.8,32,115.3,31.3,112.2z M96,96.8
			c-0.5-4.6-3.4-8.7-6.8-11.6c-3.5-3-7.8-5.1-12.4-5.9c-4.6-0.9-9.6-0.6-14,1.2c-4.4,1.8-8,5.8-8.6,8.7C67.9,84.5,82.1,89.7,96,96.8
			z"/>
	</g>
</g>
</svg>
